<svg width="119" height="121" viewBox="0 0 119 121" fill="none" xmlns="http://www.w3.org/2000/svg">
<path d="M118.949 32.0185C118.643 33.031 118.122 33.9508 117.428 34.7032C116.734 35.4556 115.886 36.0194 114.954 36.349C97.4642 44.4197 79.9786 52.5273 62.4973 60.6718C61.5927 61.1296 60.607 61.3668 59.6092 61.3668C58.6114 61.3668 57.6257 61.1296 56.7211 60.6718C39.1804 52.4996 21.6228 44.3551 4.04817 36.2383C2.26696 35.422 0.77836 34.3428 0.371226 32.0877C0.160786 31.0984 0.245946 30.0619 0.614324 29.1288C0.982702 28.1958 1.61512 27.4148 2.41964 26.8993C3.93367 26 5.54947 25.2806 7.13984 24.5334C23.7305 16.7856 40.317 9.0377 56.8992 1.28981C57.7522 0.858962 58.6814 0.635742 59.6219 0.635742C60.5625 0.635742 61.4916 0.858962 62.3446 1.28981C79.9447 9.59112 97.5575 17.8094 115.183 25.9447C116.082 26.2762 116.896 26.8336 117.559 27.5717C118.222 28.3097 118.716 29.2075 119 30.1922L118.949 32.0185ZM16.8093 31.0915L17.6236 31.5066C31.3558 37.8709 45.0881 44.226 58.8204 50.5719C59.3788 50.7731 59.9857 50.7436 60.5253 50.4889C71.7808 45.3144 83.0322 40.1122 94.2792 34.8824L102.346 31.133L101.264 30.5519C87.693 24.2337 74.1219 17.897 60.5507 11.5419C60.246 11.3784 59.9108 11.2934 59.5711 11.2934C59.2313 11.2934 58.8961 11.3784 58.5914 11.5419C48.8202 16.1538 39.0405 20.7195 29.2523 25.2391L16.8093 31.0915Z" fill="#006DF8"/>
<path d="M118.965 91.2483C118.597 92.2315 118.033 93.1138 117.314 93.8315C116.594 94.5492 115.738 95.0845 114.805 95.3989C97.3152 103.507 79.8382 111.66 62.3738 119.86C61.5062 120.304 60.5591 120.534 59.6002 120.534C58.6413 120.534 57.6943 120.304 56.8266 119.86C39.2181 111.559 21.5968 103.336 3.96285 95.1914C3.61933 95.0254 3.26308 94.8593 2.91956 94.6656C1.83983 94.1163 0.997224 93.1342 0.568026 91.9249C0.138829 90.7155 0.156289 89.3725 0.616716 88.1768C0.835155 87.5654 1.16367 87.0076 1.58301 86.5362C2.00235 86.0648 2.50405 85.6891 3.05868 85.4314C3.61331 85.1736 4.20972 85.039 4.81286 85.0352C5.41601 85.0315 6.01375 85.1588 6.57104 85.4097C10.6933 87.2083 14.7519 89.1591 18.8232 91.0546C32.0551 97.2252 45.2742 103.405 58.4806 109.594C58.8377 109.782 59.2291 109.879 59.6257 109.879C60.0222 109.879 60.4136 109.782 60.7707 109.594C77.5904 101.708 94.4229 93.8401 111.268 85.9908C115.085 84.1922 117.057 84.9254 118.965 88.9654V91.2483Z" fill="#006DF8"/>
<path d="M118.995 61.6265C118.675 62.614 118.151 63.5082 117.463 64.24C116.774 64.9717 115.94 65.5214 115.025 65.8464C97.4165 73.954 79.8207 82.1031 62.2376 90.2937C61.4163 90.7075 60.5219 90.9219 59.6167 90.9219C58.7115 90.9219 57.8171 90.7075 56.9958 90.2937C39.3363 82.0754 21.6726 73.8802 4.00473 65.708C3.71211 65.5835 3.43222 65.459 3.15232 65.3068C2.58596 65.0562 2.07068 64.6865 1.63604 64.2189C1.20139 63.7513 0.85592 63.1949 0.619498 62.5817C0.383076 61.9686 0.26035 61.3107 0.258326 60.6458C0.256302 59.9809 0.37505 59.3221 0.607733 58.7073C0.837662 58.0807 1.18225 57.5114 1.62058 57.034C2.05892 56.5566 2.58184 56.1811 3.15768 55.9301C3.73352 55.6791 4.35025 55.5579 4.97045 55.5739C5.59065 55.5899 6.20139 55.7427 6.76563 56.0232C10.6588 57.7526 14.5139 59.5927 18.3817 61.3775C31.7238 67.5666 45.0616 73.7557 58.3953 79.9448C58.7699 80.143 59.181 80.2459 59.5976 80.2459C60.0142 80.2459 60.4253 80.143 60.7999 79.9448C77.8062 72.0309 94.8295 64.1308 111.87 56.2445C112.734 55.7123 113.732 55.4912 114.719 55.613C115.706 55.7348 116.633 56.1931 117.366 56.9225C117.995 57.7705 118.525 58.6999 118.944 59.6896L118.995 61.6265Z" fill="#006DF8"/>
</svg>
