<svg width="102" height="130" viewBox="0 0 102 130" fill="none" xmlns="http://www.w3.org/2000/svg">
<g clip-path="url(#clip0_234_332)">
<path d="M55.4391 1H46.5659V129.951H55.4391V1Z" fill="#006DF8"/>
<path d="M95.7104 116.324L51.0289 71.7341L6.31832 116.324L0.043457 110.066L44.7541 65.4997L33.8751 54.6536C30.3241 51.1597 27.9482 46.6522 27.0758 41.7537C26.2993 37.21 26.8332 32.5397 28.6154 28.287C30.3705 24.0252 33.3026 20.3481 37.0708 17.6832C41.1591 14.8314 46.0353 13.318 51.0241 13.3525C56.0113 13.3186 60.8857 14.8321 64.9725 17.6832C68.7416 20.3471 71.674 24.0246 73.428 28.287C75.2101 32.5397 75.744 37.21 74.9676 41.7537C74.0969 46.6528 71.7208 51.1609 68.1682 54.6536L57.2892 65.4997L102 110.066L95.7104 116.324ZM51.0289 22.1786C47.9804 22.1498 44.9939 23.0379 42.4589 24.7272C39.924 26.4166 37.9583 28.8286 36.8183 31.6488C35.6247 34.4473 35.3043 37.5395 35.8986 40.5223C36.4929 43.5051 37.9744 46.2402 40.15 48.3708L51.0289 59.2168L61.9031 48.3708C64.0787 46.2402 65.5602 43.5051 66.1545 40.5223C66.7488 37.5395 66.4283 34.4473 65.2347 31.6488C64.094 28.8251 62.1255 26.4106 59.5866 24.7209C57.0477 23.0313 54.0567 22.1452 51.0047 22.1786H51.0289Z" fill="#006DF8"/>
</g>
<defs>
<clipPath id="clip0_234_332">
<rect width="102" height="129" fill="white" transform="translate(0 0.846191)"/>
</clipPath>
</defs>
</svg>
