<svg width="78" height="128" viewBox="0 0 78 128" fill="none" xmlns="http://www.w3.org/2000/svg">
<g clip-path="url(#clip0_234_348)">
<path d="M77.7862 111.472C76.7175 101.854 75.542 92.1295 74.4092 82.7041C73.8536 78.0947 73.305 73.4853 72.7635 68.8759C71.9193 61.8015 69.9316 56.4369 66.5013 52.002C65.4327 50.57 64.2251 49.1594 63.0923 47.8023L61.7779 46.2207C61.1047 45.3978 60.4314 44.5857 59.7475 43.7735L59.32 43.2605C60.5104 42.1596 61.3562 40.7373 61.7551 39.1657C62.1541 37.5941 62.089 35.9406 61.5678 34.4053C61.0465 32.8699 60.0915 31.5185 58.8183 30.5145C57.5451 29.5106 56.0082 28.8971 54.3936 28.7484C56.6909 22.5879 57.723 16.0277 57.4285 9.45943C57.3537 7.32215 56.1889 6.06116 53.8807 5.70851C52.6261 5.53715 51.4047 5.17686 50.258 4.63987C49.713 4.3834 49.1893 4.10555 48.6336 3.83839C46.2175 2.47851 43.6193 1.47092 40.9181 0.846191H37.1992H37.103C34.4945 1.45782 31.9789 2.41374 29.6225 3.68878L28.5539 4.19104C26.9643 4.87667 25.3054 5.38901 23.6061 5.71919C22.728 5.83356 21.9252 6.27404 21.357 6.95313C20.7887 7.63221 20.4968 8.50018 20.5391 9.38462L20.6032 11.2547C20.6358 14.1144 20.8428 16.9694 21.223 19.8039C21.6397 22.1996 22.1964 24.569 22.8901 26.8997C23.0504 27.4981 23.2214 28.1072 23.3817 28.7163C21.7854 28.9052 20.2764 29.5464 19.0325 30.5644C17.7885 31.5824 16.8615 32.9348 16.3606 34.4621C15.8598 35.9895 15.8059 37.6282 16.2054 39.1851C16.6049 40.7421 17.4411 42.1524 18.6155 43.2499L17.4721 44.6391C16.147 46.2207 14.8432 47.845 13.5074 49.3411C9.73648 53.4554 7.15132 58.5149 6.02694 63.9815C5.38576 67.4225 4.9583 70.8529 4.4881 74.6679C3.77567 80.6523 3.06325 86.6367 2.35082 92.6211C1.63839 98.8619 0.901022 105.096 0.138725 111.322C-0.76962 118.803 3.34466 125.364 10.0664 127.256C10.6435 127.416 11.2205 127.544 11.8083 127.672L12.7059 127.876H65.251L65.4647 127.79L65.6891 127.672C73.8108 126.679 78.7479 120.032 77.7862 111.472ZM53.2715 120.876H15.3669C14.347 120.894 13.3286 120.793 12.3319 120.577C10.7988 120.26 9.4327 119.397 8.48738 118.149C7.54206 116.901 7.0817 115.353 7.19176 113.791C7.19176 111.654 7.50166 109.516 7.75814 107.379C7.83294 106.802 7.90774 106.225 7.97186 105.648C8.99063 96.9704 10.0165 88.2966 11.0496 79.6264L11.3381 77.2433C11.7121 74.0374 12.1075 70.6926 12.5563 67.4332C13.2657 62.498 15.4142 57.8814 18.7331 54.1607C19.8979 52.8249 21.0413 51.457 22.1848 50.0892C23.3282 48.7213 24.4824 47.3321 25.6685 45.9749C25.9124 45.7258 26.2318 45.5643 26.5769 45.5154C30.766 45.5154 34.9622 45.5154 39.1655 45.5154C43.2619 45.5154 47.3513 45.5154 51.4335 45.5154C51.7466 45.5342 52.0442 45.6585 52.2777 45.868C53.4425 47.2145 54.586 48.5931 55.7294 49.9609C56.8729 51.3288 58.2193 52.9638 59.5124 54.4385C63.1293 58.7045 65.3192 63.9962 65.7746 69.5705C66.5369 76.0678 67.3064 82.5652 68.0829 89.0625C68.9806 96.6819 69.8889 104.301 70.7652 111.921C70.9089 113.247 70.8221 114.588 70.5087 115.885C69.75 119.091 67.2173 120.844 63.4023 120.865L53.2715 120.876ZM46.8597 28.5774L46.7849 28.6736C46.1865 28.6736 45.588 28.6736 44.9789 28.6736H43.9102L44.8293 21.1931C44.8865 20.8035 44.9222 20.4111 44.9361 20.0176C44.9922 19.5354 44.9497 19.0469 44.8111 18.5816C44.6724 18.1164 44.4406 17.6842 44.1298 17.3114C43.8189 16.9386 43.4354 16.6329 43.0027 16.4128C42.57 16.1928 42.0971 16.0631 41.6127 16.0316H41.431C40.5163 16.0582 39.646 16.432 38.9969 17.0771C38.3479 17.7221 37.9688 18.5901 37.9366 19.5047C37.7656 20.9259 37.5732 22.3365 37.3809 23.7792C37.1564 25.3822 36.9427 26.9851 36.7504 28.5881C36.7504 28.6522 36.7504 28.7056 36.7504 28.7377H36.5259C35.7245 28.7377 34.9123 28.7377 34.1001 28.7377C33.288 28.7377 32.4117 28.7377 31.5033 28.7377C31.2469 28.7377 31.2469 28.7377 31.1079 28.4385C29.4017 24.6925 28.3188 20.693 27.902 16.5979C27.7738 15.4438 27.699 14.2897 27.6242 13.1676C27.6242 12.9325 27.6242 12.6974 27.6242 12.473L29.6973 11.4792C31.685 10.5281 33.6192 9.59836 35.5535 8.69001C36.6368 8.16562 37.823 7.88823 39.0266 7.87785C40.3676 7.89892 41.6878 8.21257 42.895 8.79688L45.4705 9.97238C47.1375 10.7311 48.8046 11.4899 50.4717 12.27C50.4432 17.9057 49.1965 23.4686 46.817 28.5774H46.8597ZM53.5601 38.441H32.0697C29.6973 38.441 27.3356 38.441 24.9633 38.441C24.4157 38.4465 23.8793 38.2863 23.4244 37.9815C23.2701 37.855 23.1543 37.6879 23.0901 37.499C23.0259 37.3102 23.0159 37.1071 23.0611 36.9128C23.1001 36.6717 23.2029 36.4455 23.3588 36.2576C23.5148 36.0696 23.7183 35.9269 23.948 35.8442C24.3886 35.7382 24.8419 35.695 25.2945 35.7159H53.5921C53.782 35.7103 53.971 35.7424 54.1483 35.8105C54.3256 35.8785 54.4876 35.9812 54.6248 36.1125C54.7621 36.2437 54.8718 36.401 54.9477 36.5751C55.0236 36.7492 55.0641 36.9366 55.0669 37.1265C55.0681 37.3203 55.0268 37.5119 54.946 37.688C54.8652 37.864 54.7467 38.0202 54.599 38.1455C54.4512 38.2708 54.2778 38.3622 54.0909 38.4133C53.9041 38.4643 53.7083 38.4738 53.5173 38.441H53.5601Z" fill="#006DF8"/>
<path d="M41.8582 80.0646H36.5684C33.9396 80.0646 32.1549 78.5364 32.1442 76.2816C32.1321 75.8275 32.212 75.3756 32.3791 74.9532C32.5463 74.5308 32.7971 74.1466 33.1167 73.8237C34.0589 72.9521 35.307 72.4875 36.5898 72.5307H46.5709C48.9326 72.5307 50.3859 71.2055 50.3753 69.111C50.3646 67.0165 48.9112 65.7341 46.5602 65.702H42.4139V65.0288C42.4139 63.7571 42.4139 62.5495 42.4139 61.3313C42.4139 59.0337 41.0139 57.4949 38.9942 57.4949C36.9745 57.4949 35.6066 59.0444 35.5853 61.342C35.5853 62.5602 35.5853 63.7785 35.5853 65.0395V65.7127H35.4891C32.7168 65.8428 30.1038 67.0464 28.2031 69.0688C26.3024 71.0912 25.263 73.7737 25.3049 76.5487C25.4134 79.3494 26.6113 81.997 28.6434 83.9273C30.6755 85.8577 33.3811 86.918 36.1837 86.8825H39.5499C40.2659 86.8825 40.9819 86.8825 41.6872 86.8825C42.4578 86.9086 43.2147 87.0942 43.91 87.4275C44.6108 87.8043 45.1696 88.3996 45.5013 89.1228C45.833 89.8461 45.9197 90.6579 45.748 91.4349C45.5204 92.3037 45.0038 93.0692 44.2832 93.6053C43.5626 94.1413 42.6809 94.4161 41.7834 94.3844C40.4369 94.3844 39.0904 94.3844 37.7332 94.3844H31.8129C31.2104 94.3258 30.6023 94.3903 30.0254 94.574C29.4486 94.7578 28.9151 95.0568 28.4574 95.453C28.1614 95.768 27.9321 96.1396 27.7833 96.5454C27.6346 96.9513 27.5694 97.383 27.5918 97.8147C27.5918 99.0757 28.1903 101.181 31.8664 101.192H35.5425V101.876C35.5425 103.104 35.5425 104.269 35.5425 105.434C35.5425 107.849 36.8997 109.409 38.9515 109.409C41.0033 109.409 42.3391 107.839 42.3604 105.413C42.3604 104.216 42.3604 103.008 42.3604 101.801V101.192C45.1479 101.083 47.7824 99.889 49.7013 97.8643C51.6201 95.8396 52.6712 93.1448 52.6301 90.3556C52.5088 87.582 51.3202 84.9625 49.3128 83.0447C47.3054 81.1269 44.6345 80.0592 41.8582 80.0646Z" fill="#006DF8"/>
</g>
<defs>
<clipPath id="clip0_234_348">
<rect width="77.8077" height="127.04" fill="white" transform="translate(0.0957031 0.846191)"/>
</clipPath>
</defs>
</svg>
